# ProBuilder 4.4.0
# https://unity3d.com/unity/features/worldbuilding/probuilder
# 11/30/2020 3:55:17 PM

mtllib ./grabbitss.mtl
o grabbitss

g Cube (3)
v 117.5669 -32.71078 -85.27176
v 117.5669 -32.47255 -85.27176
v 117.5669 -32.47255 -84.817
v 117.5669 -32.71078 -84.817
v 119.0163 -32.47255 -85.27176
v 119.0163 -32.47255 -84.817
v 119.0163 -32.71078 -85.27176
v 119.0163 -32.71078 -84.817
v 117.5669 -32.24109 -85.27176
v 117.5669 -32.00285 -85.27176
v 117.5669 -32.00285 -84.817
v 117.5669 -32.24109 -84.817
v 119.0163 -32.24109 -85.27176
v 119.0162 -32.00285 -85.27176
v 119.0162 -32.00285 -84.817
v 119.0163 -32.24109 -84.817
v 117.5669 -31.82218 -85.27176
v 117.5668 -31.58394 -85.27176
v 117.5668 -31.58394 -84.817
v 117.5669 -31.82218 -84.817
v 119.0162 -31.82218 -85.27176
v 119.0162 -31.58394 -85.27176
v 119.0162 -31.58394 -84.817
v 119.0162 -31.82218 -84.817
v 117.5668 -31.39802 -85.27176
v 117.5668 -31.15978 -85.27176
v 117.5668 -31.15978 -84.817
v 117.5668 -31.39802 -84.817
v 119.0162 -31.39802 -85.27176
v 119.0162 -31.15978 -85.27176
v 119.0162 -31.15978 -84.817
v 119.0162 -31.39802 -84.817
v 117.5668 -31.06221 -85.27176
v 117.5668 -30.82397 -85.27176
v 117.5668 -30.82397 -84.817
v 117.5668 -31.06221 -84.817
v 119.0162 -31.06221 -85.27176
v 119.0162 -30.82397 -85.27176
v 119.0162 -30.82397 -84.817
v 119.0162 -31.06221 -84.817
v 117.5668 -30.68888 -85.27176
v 117.5668 -30.45064 -85.27176
v 117.5668 -30.45064 -84.817
v 117.5668 -30.68888 -84.817
v 119.0162 -30.68888 -85.27176
v 119.0162 -30.45064 -85.27176
v 119.0162 -30.45064 -84.817
v 119.0162 -30.68888 -84.817
v 117.5668 -30.33426 -85.27176
v 117.5668 -30.09602 -85.27176
v 117.5668 -30.09602 -84.817
v 117.5668 -30.33426 -84.817
v 119.0162 -30.33426 -85.27176
v 119.0162 -30.09602 -85.27176
v 119.0162 -30.09602 -84.817
v 119.0162 -30.33426 -84.817
v 117.5668 -30.01565 -85.27176
v 117.5668 -29.77741 -85.27176
v 117.5668 -29.77741 -84.817
v 117.5668 -30.01565 -84.817
v 119.0161 -30.01565 -85.27176
v 119.0161 -29.77741 -85.27176
v 119.0161 -29.77741 -84.817
v 119.0161 -30.01565 -84.817

vt 0 0
vt 0 1
vt 1 1
vt 1 0

vn -1.44937 -0.009231841 -1.592251E-07
vn 0 14.459 0
vn 1.44937 0.009231841 1.592251E-07
vn 0 -14.459 0
vn 5.073172E-07 3.576691E-09 0.4547645
vn -5.073172E-07 -3.571625E-09 -0.4547645

usemtl Lit
f 4/4/1 3/3/1 2/2/1 1/1/1
f 3/4/2 6/3/2 5/2/2 2/1/2
f 6/4/3 8/3/3 7/2/3 5/1/3
f 8/4/4 4/3/4 1/2/4 7/1/4
f 8/4/5 6/3/5 3/2/5 4/1/5
f 1/4/6 2/3/6 5/2/6 7/1/6
f 12/4/1 11/3/1 10/2/1 9/1/1
f 9/4/6 10/3/6 14/2/6 13/1/6
f 11/4/2 15/3/2 14/2/2 10/1/2
f 15/4/3 16/3/3 13/2/3 14/1/3
f 16/4/4 12/3/4 9/2/4 13/1/4
f 16/4/5 15/3/5 11/2/5 12/1/5
f 20/4/1 19/3/1 18/2/1 17/1/1
f 17/4/6 18/3/6 22/2/6 21/1/6
f 19/4/2 23/3/2 22/2/2 18/1/2
f 23/4/3 24/3/3 21/2/3 22/1/3
f 24/4/4 20/3/4 17/2/4 21/1/4
f 24/4/5 23/3/5 19/2/5 20/1/5
f 28/4/1 27/3/1 26/2/1 25/1/1
f 25/4/6 26/3/6 30/2/6 29/1/6
f 27/4/2 31/3/2 30/2/2 26/1/2
f 31/4/3 32/3/3 29/2/3 30/1/3
f 32/4/4 28/3/4 25/2/4 29/1/4
f 32/4/5 31/3/5 27/2/5 28/1/5
f 36/4/1 35/3/1 34/2/1 33/1/1
f 33/4/6 34/3/6 38/2/6 37/1/6
f 35/4/2 39/3/2 38/2/2 34/1/2
f 39/4/3 40/3/3 37/2/3 38/1/3
f 40/4/4 36/3/4 33/2/4 37/1/4
f 40/4/5 39/3/5 35/2/5 36/1/5
f 44/4/1 43/3/1 42/2/1 41/1/1
f 41/4/6 42/3/6 46/2/6 45/1/6
f 43/4/2 47/3/2 46/2/2 42/1/2
f 47/4/3 48/3/3 45/2/3 46/1/3
f 48/4/4 44/3/4 41/2/4 45/1/4
f 48/4/5 47/3/5 43/2/5 44/1/5
f 52/4/1 51/3/1 50/2/1 49/1/1
f 49/4/6 50/3/6 54/2/6 53/1/6
f 51/4/2 55/3/2 54/2/2 50/1/2
f 55/4/3 56/3/3 53/2/3 54/1/3
f 56/4/4 52/3/4 49/2/4 53/1/4
f 56/4/5 55/3/5 51/2/5 52/1/5
f 60/4/1 59/3/1 58/2/1 57/1/1
f 57/4/6 58/3/6 62/2/6 61/1/6
f 59/4/2 63/3/2 62/2/2 58/1/2
f 63/4/3 64/3/3 61/2/3 62/1/3
f 64/4/4 60/3/4 57/2/4 61/1/4
f 64/4/5 63/3/5 59/2/5 60/1/5

g Cube (4)
v 118.0119 -8.539311 -87.69573
v 118.0119 -8.539311 -87.97813
v 118.3805 -8.539311 -87.97813
v 118.3805 -8.539311 -87.69573
v 118.0119 -8.539311 -88.26052
v 118.3805 -8.539311 -88.26052
v 118.7492 -8.539311 -88.26052
v 118.7492 -8.539311 -87.97813
v 118.7492 -8.539311 -87.69573
v 118.0119 -17.37541 -88.26052
v 118.3805 -17.37541 -88.26052
v 118.0119 -20.9278 -88.26052
v 118.3805 -20.9278 -88.26052
v 118.7492 -20.9278 -88.26052
v 118.7492 -17.37541 -88.26052
v 118.0119 -20.9278 -87.97813
v 118.3805 -20.9278 -87.97813
v 118.0119 -20.9278 -87.69573
v 118.3805 -20.9278 -87.69573
v 118.7492 -20.9278 -87.69573
v 118.7492 -20.9278 -87.97813
v 118.7492 -9.091546 -87.69573
v 118.7492 -17.37541 -87.97813
v 118.0119 -17.37541 -87.97813
v 118.0119 -9.091546 -87.69573
v 118.3805 -8.539309 -83.694
v 118.7492 -8.539309 -83.694
v 118.0119 -8.539309 -83.694
v 118.1962 -9.091546 -87.69573
v 118.3805 -9.091546 -87.69573
v 118.3805 -9.091546 -83.694
v 118.1962 -9.091546 -83.694
v 118.0119 -9.091546 -83.694
v 118.7492 -9.091546 -83.694
v 118.5649 -9.091546 -83.694
v 118.5649 -9.091546 -87.69573
v 118.1962 -9.091546 -84.11569
v 118.3805 -9.091546 -84.11569
v 118.0119 -9.091546 -84.11569
v 118.0119 -11.67452 -84.11569
v 118.0119 -11.67452 -83.694
v 118.1962 -11.67452 -83.694
v 118.1962 -11.67452 -84.11569
v 118.3805 -11.67452 -83.694
v 118.3805 -11.67452 -84.11569
v 118.7492 -9.091546 -84.11569
v 118.5649 -9.091546 -84.11569
v 118.5649 -11.67452 -83.694
v 118.5649 -11.67452 -84.11569
v 118.7492 -11.67452 -83.694
v 118.7492 -11.67452 -84.11569

vt 0 0
vt 0 0.5
vt 0.5 0.5
vt 0.5 0
vt 0 1
vt 0.5 1
vt 1 1
vt 1 0.5
vt 1 0
vt -0.5000012 0.5000029
vt 2.53893E-06 7.585401
vt -0.5000012 7.585401
vt 0.5000063 7.585401
vt 0.25 0.5
vt 0.75 0.5
vt -0.2500044 0.5000028
vt -0.2500096 6.83876
vt -2.53893E-06 6.83876
vt -0.5000063 6.83876
vt -0.2500096 7.585401
vt 0.5000028 1.898651
vt 0.5000028 1.936844
vt 7.585401 1.936844
vt 7.585401 1.898651
vt 6.83876 1.898651
vt -0.5000028 1.936844
vt -0.5000028 1.898651
vt -6.83876 1.898651
vt -7.585401 1.898651
vt -7.585401 1.936844
vt 0.2499993 0.5000028
vt 0.2499941 6.83876
vt 0.5000012 6.83876
vt 0.2499941 7.585401
vt 6.83876 1.72001
vt 7.585401 1.72001
vt -0.2500044 1.898651
vt -0.5000063 1.72001
vt -0.2500096 1.72001
vt -2.53893E-06 1.898651
vt 0.2499993 1.898651
vt -2.53893E-06 1.72001
vt 0.2499941 1.72001
vt 0.2500096 1.898651
vt 0.2500096 1.72001
vt 0.5000063 1.72001
vt -0.2499941 1.898651
vt -0.2499941 1.72001
vt -7.585401 1.72001
vt -6.83876 1.72001

vn 0 14.459 0
vn 0 0 -0.5647858
vn 0 -14.459 0
vn 0.737345 0 0
vn -0.737345 0 0
vn 0 0 0.5647858

usemtl Lit
f 94/7/12 93/18/12 83/8/12
f 93/18/12 82/5/12 83/8/12
f 89/6/12 82/5/12 93/18/12
f 92/9/12 97/6/12 96/18/12
f 96/18/12 95/7/12 90/10/12
f 92/9/12 96/18/12 90/10/12
f 90/10/12 95/7/12 99/19/12
f 99/19/12 98/12/12 91/11/12
f 90/10/12 99/19/12 91/11/12
f 100/19/12 84/13/12 86/12/12
f 100/19/12 83/8/12 84/13/12
f 94/7/12 83/8/12 100/19/12
f 65/26/11 89/25/11 103/29/11
f 103/29/11 97/28/11 92/27/11
f 65/26/11 103/29/11 92/27/11
f 91/34/10 110/32/10 73/30/10
f 91/34/10 98/33/10 110/32/10
f 110/32/10 86/31/10 73/30/10
f 68/8/7 67/7/7 66/6/7
f 66/6/7 65/5/7 68/8/7
f 67/7/7 70/10/7 69/9/7
f 69/9/7 66/6/7 67/7/7
f 72/12/7 71/11/7 70/10/7
f 70/10/7 67/7/7 72/12/7
f 73/13/7 72/12/7 67/7/7
f 67/7/7 68/8/7 73/13/7
f 75/7/8 74/6/8 69/5/8
f 69/5/8 70/8/8 75/7/8
f 77/10/8 76/9/8 74/6/8
f 74/6/8 75/7/8 77/10/8
f 78/11/8 77/10/8 75/7/8
f 75/7/8 79/12/8 78/11/8
f 79/12/8 75/7/8 70/8/8
f 70/8/8 71/13/8 79/12/8
f 81/7/9 80/6/9 76/5/9
f 76/5/9 77/8/9 81/7/9
f 83/10/9 82/9/9 80/6/9
f 80/6/9 81/7/9 83/10/9
f 84/11/9 83/10/9 81/7/9
f 81/7/9 85/12/9 84/11/9
f 85/12/9 81/7/9 77/8/9
f 77/8/9 78/13/9 85/12/9
f 84/5/10 85/8/10 87/7/10
f 87/7/10 86/6/10 84/5/10
f 86/6/10 87/7/10 72/10/10
f 72/10/10 73/9/10 86/6/10
f 87/7/10 79/12/10 71/11/10
f 71/11/10 72/10/10 87/7/10
f 85/8/10 78/13/10 79/12/10
f 79/12/10 87/7/10 85/8/10
f 76/5/11 80/8/11 88/7/11
f 88/7/11 74/6/11 76/5/11
f 74/6/11 88/7/11 66/10/11
f 66/10/11 69/9/11 74/6/11
f 88/7/11 89/12/11 65/11/11
f 65/11/11 66/10/11 88/7/11
f 80/8/11 82/13/11 89/12/11
f 89/12/11 88/7/11 80/8/11
f 91/16/7 73/14/7 68/6/7
f 68/6/7 90/15/7 91/16/7
f 90/15/7 68/6/7 65/7/7
f 65/7/7 92/17/7 90/15/7
f 102/22/9 101/21/9 93/20/9
f 93/20/9 94/6/9 102/22/9
f 93/20/9 101/21/9 103/23/9
f 103/23/9 89/14/9 93/20/9
f 106/24/9 105/16/9 104/23/9
f 104/23/9 107/21/9 106/24/9
f 109/22/9 108/15/9 106/24/9
f 106/24/9 107/21/9 109/22/9
f 110/37/9 111/36/9 100/35/9
f 100/35/9 86/7/9 110/37/9
f 100/35/9 111/36/9 102/22/9
f 102/22/9 94/6/9 100/35/9
f 113/36/9 112/38/9 108/15/9
f 108/15/9 109/22/9 113/36/9
f 115/37/9 114/17/9 112/38/9
f 112/38/9 113/36/9 115/37/9
f 105/40/11 97/28/11 103/29/11
f 103/29/11 104/39/11 105/40/11
f 106/43/12 96/41/12 97/31/12
f 97/31/12 105/42/12 106/43/12
f 112/47/12 99/45/12 95/44/12
f 95/44/12 108/46/12 112/47/12
f 104/50/8 103/25/8 101/48/8
f 101/48/8 107/49/8 104/50/8
f 108/46/12 95/44/12 96/41/12
f 96/41/12 106/43/12 108/46/12
f 114/50/12 98/25/12 99/45/12
f 99/45/12 112/47/12 114/50/12
f 107/49/8 101/48/8 102/44/8
f 102/44/8 109/46/8 107/49/8
f 109/46/8 102/44/8 111/51/8
f 111/51/8 113/52/8 109/46/8
f 115/54/10 110/32/10 98/33/10
f 98/33/10 114/53/10 115/54/10
f 113/52/8 111/51/8 110/31/8
f 110/31/8 115/42/8 113/52/8

g Cube (5)
v 117.5669 -26.22737 -85.27176
v 117.5669 -25.98913 -85.27176
v 117.5669 -25.98913 -84.817
v 117.5669 -26.22737 -84.817
v 119.0163 -25.98913 -85.27176
v 119.0163 -25.98913 -84.817
v 119.0163 -26.22737 -85.27176
v 119.0163 -26.22737 -84.817
v 117.5669 -25.75768 -85.27176
v 117.5669 -25.51944 -85.27176
v 117.5669 -25.51944 -84.817
v 117.5669 -25.75768 -84.817
v 119.0163 -25.75768 -85.27176
v 119.0162 -25.51944 -85.27176
v 119.0162 -25.51944 -84.817
v 119.0163 -25.75768 -84.817
v 117.5669 -25.33876 -85.27176
v 117.5668 -25.10052 -85.27176
v 117.5668 -25.10052 -84.817
v 117.5669 -25.33876 -84.817
v 119.0162 -25.33876 -85.27176
v 119.0162 -25.10052 -85.27176
v 119.0162 -25.10052 -84.817
v 119.0162 -25.33876 -84.817
v 117.5668 -24.9146 -85.27176
v 117.5668 -24.67636 -85.27176
v 117.5668 -24.67636 -84.817
v 117.5668 -24.9146 -84.817
v 119.0162 -24.9146 -85.27176
v 119.0162 -24.67636 -85.27176
v 119.0162 -24.67636 -84.817
v 119.0162 -24.9146 -84.817
v 117.5668 -24.5788 -85.27176
v 117.5668 -24.34056 -85.27176
v 117.5668 -24.34056 -84.817
v 117.5668 -24.5788 -84.817
v 119.0162 -24.5788 -85.27176
v 119.0162 -24.34056 -85.27176
v 119.0162 -24.34056 -84.817
v 119.0162 -24.5788 -84.817
v 117.5668 -24.20547 -85.27176
v 117.5668 -23.96723 -85.27176
v 117.5668 -23.96723 -84.817
v 117.5668 -24.20547 -84.817
v 119.0162 -24.20547 -85.27176
v 119.0162 -23.96723 -85.27176
v 119.0162 -23.96723 -84.817
v 119.0162 -24.20547 -84.817
v 117.5668 -23.85084 -85.27176
v 117.5668 -23.6126 -85.27176
v 117.5668 -23.6126 -84.817
v 117.5668 -23.85084 -84.817
v 119.0162 -23.85084 -85.27176
v 119.0162 -23.6126 -85.27176
v 119.0162 -23.6126 -84.817
v 119.0162 -23.85084 -84.817
v 117.5668 -23.53223 -85.27176
v 117.5668 -23.29399 -85.27176
v 117.5668 -23.29399 -84.817
v 117.5668 -23.53223 -84.817
v 119.0161 -23.53223 -85.27176
v 119.0161 -23.29399 -85.27176
v 119.0161 -23.29399 -84.817
v 119.0161 -23.53223 -84.817

vt 0 0
vt 0 1
vt 1 1
vt 1 0

vn -1.44937 -0.009231841 -1.592251E-07
vn 0 14.459 0
vn 1.44937 0.009231841 1.592251E-07
vn 0 -14.459 0
vn 5.073172E-07 3.576691E-09 0.4547645
vn -5.073172E-07 -3.571625E-09 -0.4547645

usemtl Lit
f 119/58/13 118/57/13 117/56/13 116/55/13
f 118/58/14 121/57/14 120/56/14 117/55/14
f 121/58/15 123/57/15 122/56/15 120/55/15
f 123/58/16 119/57/16 116/56/16 122/55/16
f 123/58/17 121/57/17 118/56/17 119/55/17
f 116/58/18 117/57/18 120/56/18 122/55/18
f 127/58/13 126/57/13 125/56/13 124/55/13
f 124/58/18 125/57/18 129/56/18 128/55/18
f 126/58/14 130/57/14 129/56/14 125/55/14
f 130/58/15 131/57/15 128/56/15 129/55/15
f 131/58/16 127/57/16 124/56/16 128/55/16
f 131/58/17 130/57/17 126/56/17 127/55/17
f 135/58/13 134/57/13 133/56/13 132/55/13
f 132/58/18 133/57/18 137/56/18 136/55/18
f 134/58/14 138/57/14 137/56/14 133/55/14
f 138/58/15 139/57/15 136/56/15 137/55/15
f 139/58/16 135/57/16 132/56/16 136/55/16
f 139/58/17 138/57/17 134/56/17 135/55/17
f 143/58/13 142/57/13 141/56/13 140/55/13
f 140/58/18 141/57/18 145/56/18 144/55/18
f 142/58/14 146/57/14 145/56/14 141/55/14
f 146/58/15 147/57/15 144/56/15 145/55/15
f 147/58/16 143/57/16 140/56/16 144/55/16
f 147/58/17 146/57/17 142/56/17 143/55/17
f 151/58/13 150/57/13 149/56/13 148/55/13
f 148/58/18 149/57/18 153/56/18 152/55/18
f 150/58/14 154/57/14 153/56/14 149/55/14
f 154/58/15 155/57/15 152/56/15 153/55/15
f 155/58/16 151/57/16 148/56/16 152/55/16
f 155/58/17 154/57/17 150/56/17 151/55/17
f 159/58/13 158/57/13 157/56/13 156/55/13
f 156/58/18 157/57/18 161/56/18 160/55/18
f 158/58/14 162/57/14 161/56/14 157/55/14
f 162/58/15 163/57/15 160/56/15 161/55/15
f 163/58/16 159/57/16 156/56/16 160/55/16
f 163/58/17 162/57/17 158/56/17 159/55/17
f 167/58/13 166/57/13 165/56/13 164/55/13
f 164/58/18 165/57/18 169/56/18 168/55/18
f 166/58/14 170/57/14 169/56/14 165/55/14
f 170/58/15 171/57/15 168/56/15 169/55/15
f 171/58/16 167/57/16 164/56/16 168/55/16
f 171/58/17 170/57/17 166/56/17 167/55/17
f 175/58/13 174/57/13 173/56/13 172/55/13
f 172/58/18 173/57/18 177/56/18 176/55/18
f 174/58/14 178/57/14 177/56/14 173/55/14
f 178/58/15 179/57/15 176/56/15 177/55/15
f 179/58/16 175/57/16 172/56/16 176/55/16
f 179/58/17 178/57/17 174/56/17 175/55/17

g Cube (7)
v 119.9508 -31.01414 -88.2674
v 119.9508 -30.54358 -88.2674
v 119.9505 -30.54358 -84.28483
v 119.9505 -31.01414 -84.28483
v 120.3468 -30.54358 -88.26736
v 120.3464 -30.54358 -84.28479
v 120.3468 -31.01414 -88.26736
v 120.3464 -31.01414 -84.28479

vt 0 0
vt 0 1
vt 1 1
vt 1 0

vn -1 0 -8.440018E-05
vn 0 1 0
vn 1 0 8.440018E-05
vn 0 -1 0
vn -8.440018E-05 0 1
vn 8.440018E-05 0 -1

usemtl Lit
f 183/62/19 182/61/19 181/60/19 180/59/19
f 182/62/20 185/61/20 184/60/20 181/59/20
f 185/62/21 187/61/21 186/60/21 184/59/21
f 187/62/22 183/61/22 180/60/22 186/59/22
f 187/62/23 185/61/23 182/60/23 183/59/23
f 180/62/24 181/61/24 184/60/24 186/59/24

g Cube (4)
v 117.5669 -29.46619 -85.27176
v 117.5669 -29.22795 -85.27176
v 117.5669 -29.22795 -84.817
v 117.5669 -29.46619 -84.817
v 119.0163 -29.22795 -85.27176
v 119.0163 -29.22795 -84.817
v 119.0163 -29.46619 -85.27176
v 119.0163 -29.46619 -84.817
v 117.5669 -28.99649 -85.27176
v 117.5669 -28.75826 -85.27176
v 117.5669 -28.75826 -84.817
v 117.5669 -28.99649 -84.817
v 119.0163 -28.99649 -85.27176
v 119.0162 -28.75826 -85.27176
v 119.0162 -28.75826 -84.817
v 119.0163 -28.99649 -84.817
v 117.5669 -28.57758 -85.27176
v 117.5668 -28.33934 -85.27176
v 117.5668 -28.33934 -84.817
v 117.5669 -28.57758 -84.817
v 119.0162 -28.57758 -85.27176
v 119.0162 -28.33934 -85.27176
v 119.0162 -28.33934 -84.817
v 119.0162 -28.57758 -84.817
v 117.5668 -28.15342 -85.27176
v 117.5668 -27.91518 -85.27176
v 117.5668 -27.91518 -84.817
v 117.5668 -28.15342 -84.817
v 119.0162 -28.15342 -85.27176
v 119.0162 -27.91518 -85.27176
v 119.0162 -27.91518 -84.817
v 119.0162 -28.15342 -84.817
v 117.5668 -27.81762 -85.27176
v 117.5668 -27.57938 -85.27176
v 117.5668 -27.57938 -84.817
v 117.5668 -27.81762 -84.817
v 119.0162 -27.81762 -85.27176
v 119.0162 -27.57938 -85.27176
v 119.0162 -27.57938 -84.817
v 119.0162 -27.81762 -84.817
v 117.5668 -27.44428 -85.27176
v 117.5668 -27.20604 -85.27176
v 117.5668 -27.20604 -84.817
v 117.5668 -27.44428 -84.817
v 119.0162 -27.44428 -85.27176
v 119.0162 -27.20604 -85.27176
v 119.0162 -27.20604 -84.817
v 119.0162 -27.44428 -84.817
v 117.5668 -27.08966 -85.27176
v 117.5668 -26.85142 -85.27176
v 117.5668 -26.85142 -84.817
v 117.5668 -27.08966 -84.817
v 119.0162 -27.08966 -85.27176
v 119.0162 -26.85142 -85.27176
v 119.0162 -26.85142 -84.817
v 119.0162 -27.08966 -84.817
v 117.5668 -26.77105 -85.27176
v 117.5668 -26.53281 -85.27176
v 117.5668 -26.53281 -84.817
v 117.5668 -26.77105 -84.817
v 119.0161 -26.77105 -85.27176
v 119.0161 -26.53281 -85.27176
v 119.0161 -26.53281 -84.817
v 119.0161 -26.77105 -84.817

vt 0 0
vt 0 1
vt 1 1
vt 1 0

vn -1.44937 -0.009231841 -1.592251E-07
vn 0 14.459 0
vn 1.44937 0.009231841 1.592251E-07
vn 0 -14.459 0
vn 5.073172E-07 3.576691E-09 0.4547645
vn -5.073172E-07 -3.571625E-09 -0.4547645

usemtl Lit
f 191/66/25 190/65/25 189/64/25 188/63/25
f 190/66/26 193/65/26 192/64/26 189/63/26
f 193/66/27 195/65/27 194/64/27 192/63/27
f 195/66/28 191/65/28 188/64/28 194/63/28
f 195/66/29 193/65/29 190/64/29 191/63/29
f 188/66/30 189/65/30 192/64/30 194/63/30
f 199/66/25 198/65/25 197/64/25 196/63/25
f 196/66/30 197/65/30 201/64/30 200/63/30
f 198/66/26 202/65/26 201/64/26 197/63/26
f 202/66/27 203/65/27 200/64/27 201/63/27
f 203/66/28 199/65/28 196/64/28 200/63/28
f 203/66/29 202/65/29 198/64/29 199/63/29
f 207/66/25 206/65/25 205/64/25 204/63/25
f 204/66/30 205/65/30 209/64/30 208/63/30
f 206/66/26 210/65/26 209/64/26 205/63/26
f 210/66/27 211/65/27 208/64/27 209/63/27
f 211/66/28 207/65/28 204/64/28 208/63/28
f 211/66/29 210/65/29 206/64/29 207/63/29
f 215/66/25 214/65/25 213/64/25 212/63/25
f 212/66/30 213/65/30 217/64/30 216/63/30
f 214/66/26 218/65/26 217/64/26 213/63/26
f 218/66/27 219/65/27 216/64/27 217/63/27
f 219/66/28 215/65/28 212/64/28 216/63/28
f 219/66/29 218/65/29 214/64/29 215/63/29
f 223/66/25 222/65/25 221/64/25 220/63/25
f 220/66/30 221/65/30 225/64/30 224/63/30
f 222/66/26 226/65/26 225/64/26 221/63/26
f 226/66/27 227/65/27 224/64/27 225/63/27
f 227/66/28 223/65/28 220/64/28 224/63/28
f 227/66/29 226/65/29 222/64/29 223/63/29
f 231/66/25 230/65/25 229/64/25 228/63/25
f 228/66/30 229/65/30 233/64/30 232/63/30
f 230/66/26 234/65/26 233/64/26 229/63/26
f 234/66/27 235/65/27 232/64/27 233/63/27
f 235/66/28 231/65/28 228/64/28 232/63/28
f 235/66/29 234/65/29 230/64/29 231/63/29
f 239/66/25 238/65/25 237/64/25 236/63/25
f 236/66/30 237/65/30 241/64/30 240/63/30
f 238/66/26 242/65/26 241/64/26 237/63/26
f 242/66/27 243/65/27 240/64/27 241/63/27
f 243/66/28 239/65/28 236/64/28 240/63/28
f 243/66/29 242/65/29 238/64/29 239/63/29
f 247/66/25 246/65/25 245/64/25 244/63/25
f 244/66/30 245/65/30 249/64/30 248/63/30
f 246/66/26 250/65/26 249/64/26 245/63/26
f 250/66/27 251/65/27 248/64/27 249/63/27
f 251/66/28 247/65/28 244/64/28 248/63/28
f 251/66/29 250/65/29 246/64/29 247/63/29

g platform
v 114.431 -43.77364 -70.49863
v 114.431 -11.44696 -70.49863
v 128.89 -11.44696 -70.49863
v 128.89 -43.77364 -70.49863
v 114.431 -11.44696 -84.95763
v 128.89 -11.44696 -84.95763
v 114.431 -43.77364 -84.95763
v 128.89 -43.77364 -84.95763

vt 0 0
vt 0 1
vt 1 1
vt 1 0

vn 0 7.709488E-07 14.459
vn 0 14.459 0
vn 0 -7.709488E-07 -14.459
vn 0 -14.459 0
vn 14.459 2.120109E-06 0
vn -14.459 -9.251386E-06 0

usemtl Lit
f 255/70/31 254/69/31 253/68/31 252/67/31
f 254/70/32 257/69/32 256/68/32 253/67/32
f 257/70/33 259/69/33 258/68/33 256/67/33
f 259/70/34 255/69/34 252/68/34 258/67/34
f 259/70/35 257/69/35 254/68/35 255/67/35
f 252/70/36 253/69/36 256/68/36 258/67/36

g Cube (6)
v 118.128 -22.03414 -86.07813
v 118.128 -21.56358 -86.07813
v 122.1105 -21.56358 -86.07813
v 122.1105 -22.03414 -86.07813
v 118.128 -21.56358 -86.47407
v 122.1105 -21.56358 -86.47407
v 118.128 -22.03414 -86.47407
v 122.1105 -22.03414 -86.47407

vt 0 0
vt 0 1
vt 1 1
vt 1 0

vn 0 0 1
vn 0 1 0
vn 0 0 -1
vn 0 -1 0
vn 1 0 0
vn -1 0 0

usemtl Lit
f 263/74/37 262/73/37 261/72/37 260/71/37
f 262/74/38 265/73/38 264/72/38 261/71/38
f 265/74/39 267/73/39 266/72/39 264/71/39
f 267/74/40 263/73/40 260/72/40 266/71/40
f 267/74/41 265/73/41 262/72/41 263/71/41
f 260/74/42 261/73/42 264/72/42 266/71/42

